<?xml version="1.0" standalone="no"?>
<!DOCTYPE svg PUBLIC "-//W3C//DTD SVG 20010904//EN"
 "http://www.w3.org/TR/2001/REC-SVG-20010904/DTD/svg10.dtd">
<svg version="1.0" xmlns="http://www.w3.org/2000/svg"
 width="512.000000pt" height="512.000000pt" viewBox="0 0 512.000000 512.000000"
 preserveAspectRatio="xMidYMid meet">
<metadata>
Created by potrace 1.15, written by Peter Selinger 2001-2017
</metadata>
<g transform="translate(0.000000,512.000000) scale(0.100000,-0.100000)"
fill="#000000" stroke="none">
<path d="M2465 4113 c-268 -17 -545 -106 -772 -249 -105 -67 -123 -93 -83
-129 25 -23 50 -16 129 35 147 95 352 179 531 217 66 14 130 18 290 18 178 0
219 -3 309 -23 171 -39 361 -115 493 -198 45 -29 69 -30 91 -6 41 45 6 78
-177 168 -133 65 -265 111 -401 139 -75 15 -287 36 -335 33 -14 -1 -47 -3 -75
-5z"/>
<path d="M2380 3939 c-558 -72 -1031 -461 -1198 -989 -44 -138 -62 -243 -72
-435 -6 -93 -14 -191 -19 -216 -38 -184 -154 -384 -292 -501 -28 -24 -218
-158 -422 -298 -324 -223 -372 -259 -375 -284 -4 -33 13 -56 42 -56 11 0 318
153 680 339 l660 339 60 -92 c72 -109 238 -279 346 -353 156 -106 327 -177
515 -215 131 -26 360 -28 490 -3 558 106 969 510 1086 1068 17 79 22 137 22
257 0 181 -20 297 -78 455 -19 55 -37 103 -38 107 -1 5 288 157 643 339 355
182 655 337 668 345 39 25 25 94 -20 94 -10 0 -212 -70 -448 -155 -237 -85
-462 -162 -501 -170 -92 -20 -260 -19 -357 1 -121 25 -217 67 -352 155 -249
161 -419 229 -665 264 -108 16 -271 17 -375 4z m445 -119 c200 -45 343 -107
525 -227 121 -81 179 -111 270 -143 187 -64 425 -69 614 -14 27 8 52 14 55 14
3 0 -134 -73 -306 -161 -203 -104 -314 -167 -318 -179 -3 -11 11 -58 34 -113
74 -173 102 -312 103 -502 1 -683 -558 -1237 -1247 -1237 -266 0 -524 85 -734
242 -135 101 -286 275 -355 408 -36 70 -33 70 -370 -102 -168 -86 -306 -155
-306 -152 0 2 29 27 65 55 150 118 286 345 331 550 8 36 19 143 24 238 14 261
51 414 145 605 65 132 138 232 255 348 230 231 500 356 850 394 76 9 279 -5
365 -24z"/>
<path d="M2385 3620 c-142 -21 -303 -81 -433 -162 -98 -62 -248 -204 -315
-299 -55 -78 -127 -218 -127 -247 0 -27 23 -44 57 -40 24 3 34 15 73 90 56
108 96 165 180 251 156 164 361 272 582 307 109 18 312 8 408 -19 128 -37 136
-37 155 -7 16 23 16 28 2 49 -41 63 -378 107 -582 77z"/>
<path d="M3021 3501 c-12 -12 -21 -28 -21 -36 0 -20 31 -50 72 -71 18 -9 63
-38 99 -65 88 -65 139 -64 139 1 0 22 -14 37 -77 82 -149 105 -182 119 -212
89z"/>
<path d="M2433 3469 c-433 -56 -773 -388 -838 -819 -22 -141 -20 -235 5 -260
11 -11 26 -20 33 -20 22 0 1560 794 1570 811 18 29 -1 63 -58 104 -210 152
-460 217 -712 184z m261 -104 c48 -9 119 -26 158 -40 70 -24 192 -87 203 -104
4 -7 -1351 -711 -1369 -711 -6 0 2 85 16 160 65 356 380 652 744 699 105 13
153 12 248 -4z"/>
<path d="M3625 3273 c-62 -31 -85 -51 -85 -73 0 -21 31 -50 54 -50 20 0 94 36
119 58 20 18 23 55 5 69 -27 21 -45 20 -93 -4z"/>
<path d="M2764 2833 c-276 -142 -508 -264 -518 -272 -9 -7 -16 -27 -16 -42 0
-23 6 -32 26 -40 24 -8 81 18 543 255 538 275 556 287 527 331 -7 11 -24 21
-37 23 -15 1 -208 -93 -525 -255z"/>
<path d="M2537 2546 c-549 -282 -1003 -519 -1008 -527 -16 -25 -10 -48 17 -65
25 -17 28 -16 90 14 35 18 68 32 73 32 4 0 25 -25 46 -56 49 -74 175 -201 250
-251 176 -118 340 -167 560 -166 199 0 347 42 511 142 257 158 421 422 456
731 15 138 1 272 -43 406 -18 52 -30 96 -28 98 2 2 32 18 66 35 46 23 64 38
69 56 7 29 -18 65 -45 65 -9 0 -465 -231 -1014 -514z m857 222 c50 -159 56
-300 20 -461 -36 -156 -108 -290 -222 -409 -235 -246 -572 -333 -894 -232
-144 46 -230 96 -342 203 -66 64 -153 177 -143 188 8 7 1541 793 1548 793 4 0
18 -37 33 -82z"/>
<path d="M3270 2725 c-11 -13 -11 -30 0 -100 8 -51 11 -121 7 -179 -5 -82 -3
-97 12 -110 10 -9 27 -16 38 -16 42 0 48 24 48 184 -1 183 -13 229 -61 234
-19 2 -36 -3 -44 -13z"/>
<path d="M3164 2092 c-32 -20 -84 -96 -84 -123 0 -32 29 -54 61 -44 23 8 99
100 99 121 0 17 -36 54 -52 54 -7 0 -18 -4 -24 -8z"/>
<path d="M1978 1999 c-36 -21 -22 -63 39 -119 71 -65 97 -76 129 -55 46 30 32
58 -65 134 -67 53 -75 57 -103 40z"/>
<path d="M2835 1834 c-88 -42 -184 -57 -322 -51 -130 5 -153 -1 -153 -41 1
-48 46 -62 198 -63 126 0 246 24 342 70 45 22 56 31 58 54 7 60 -39 72 -123
31z"/>
<path d="M1470 2786 c-36 -44 -56 -379 -24 -410 18 -19 55 -21 72 -4 8 8 12
48 12 114 0 56 7 140 15 188 18 101 11 126 -34 126 -16 0 -34 -6 -41 -14z"/>
<path d="M1875 2376 c-233 -120 -260 -137 -263 -161 -4 -34 14 -55 47 -55 14
0 141 60 281 133 234 121 255 134 258 160 4 34 -13 57 -42 57 -11 0 -138 -61
-281 -134z"/>
<path d="M1407 2137 c-80 -43 -101 -72 -80 -106 18 -29 64 -23 148 22 68 36
80 46 83 70 8 68 -41 73 -151 14z"/>
<path d="M1394 3618 c-156 -163 -278 -359 -356 -575 -28 -79 -29 -85 -14 -108
18 -27 43 -32 69 -12 9 6 28 46 43 87 68 191 179 371 326 528 52 55 68 79 68
102 0 29 -22 50 -53 50 -7 0 -45 -33 -83 -72z"/>
<path d="M4775 3527 c-73 -38 -80 -45 -83 -74 -3 -27 1 -35 23 -45 24 -11 36
-8 111 31 50 25 86 50 89 62 8 25 -19 69 -43 69 -9 -1 -53 -20 -97 -43z"/>
<path d="M4459 3365 c-42 -27 -53 -49 -39 -75 16 -29 46 -33 94 -12 53 24 70
50 56 86 -13 34 -61 34 -111 1z"/>
<path d="M4190 3229 c-184 -96 -182 -94 -178 -132 2 -24 10 -34 29 -41 22 -8
49 3 185 75 146 77 159 86 162 114 4 30 -18 55 -47 55 -9 0 -77 -32 -151 -71z"/>
<path d="M3915 2936 c-20 -14 -20 -12 13 -172 10 -50 22 -96 26 -102 10 -17
61 -15 76 3 16 19 7 104 -19 200 -24 84 -51 104 -96 71z"/>
<path d="M3969 2574 c-8 -10 -16 -64 -21 -152 -16 -290 -128 -583 -303 -792
-30 -36 -67 -82 -81 -102 -25 -36 -26 -39 -10 -63 26 -40 57 -32 112 28 231
255 360 564 384 915 7 115 6 141 -6 160 -17 26 -56 29 -75 6z"/>
<path d="M310 2489 c-56 -25 -86 -53 -111 -101 -43 -85 -33 -187 28 -257 112
-131 312 -110 387 41 47 94 30 194 -45 270 -70 70 -169 88 -259 47z m180 -114
c58 -56 63 -126 14 -184 -93 -111 -281 7 -218 136 42 84 142 108 204 48z"/>
<path d="M4715 2017 c-118 -46 -183 -132 -193 -253 -6 -82 17 -150 73 -212
138 -154 395 -116 475 70 64 149 12 303 -129 375 -53 28 -73 33 -129 32 -37 0
-80 -6 -97 -12z m170 -106 c75 -34 125 -122 110 -194 -29 -136 -165 -199 -282
-131 -130 75 -118 256 22 328 40 21 101 20 150 -3z"/>
<path d="M1090 1637 c-92 -51 -95 -54 -95 -87 0 -28 5 -36 26 -44 21 -7 43 0
130 45 91 47 104 57 107 82 8 72 -42 73 -168 4z"/>
<path d="M1406 1624 c-30 -30 -19 -59 55 -139 59 -62 77 -75 98 -73 38 5 55
44 33 81 -23 39 -137 147 -155 147 -9 0 -23 -7 -31 -16z"/>
<path d="M611 1392 c-134 -70 -249 -135 -255 -144 -17 -28 8 -68 42 -68 42 0
521 248 534 276 7 15 6 28 -1 43 -22 40 -64 26 -320 -107z"/>
<path d="M3405 1394 c-177 -135 -398 -231 -619 -269 -115 -19 -338 -19 -452 0
-195 34 -394 114 -559 225 -88 59 -123 64 -140 16 -9 -26 -6 -31 30 -63 51
-44 183 -124 267 -161 441 -198 960 -177 1363 55 124 72 234 155 241 182 9 33
-7 55 -42 59 -21 1 -45 -10 -89 -44z"/>
</g>
</svg>
